<?xml version="1.0" encoding="UTF-8"?>
<!DOCTYPE svg PUBLIC "-//W3C//DTD SVG 1.1//EN" "http://www.w3.org/Graphics/SVG/1.1/DTD/svg11.dtd">
<!-- Creator: CorelDRAW -->
<svg xmlns="http://www.w3.org/2000/svg" xml:space="preserve" width="85.7685mm" height="46.9571mm" version="1.1" style="shape-rendering:geometricPrecision; text-rendering:geometricPrecision; image-rendering:optimizeQuality; fill-rule:evenodd; clip-rule:evenodd"
viewBox="0 0 693.78 379.84"
 xmlns:xlink="http://www.w3.org/1999/xlink"
 xmlns:xodm="http://www.corel.com/coreldraw/odm/2003">
 <defs>
  <style type="text/css">
   <![CDATA[
    .fil0 {fill:black}
   ]]>
  </style>
 </defs>
 <g id="Camada_x0020_1">
  <metadata id="CorelCorpID_0Corel-Layer"/>
  <path class="fil0" d="M377.91 379.84l5.07 0c4.04,-1.83 7.69,-0.82 13.52,-7.37 7.77,-8.72 6.86,-21.7 -2.47,-30.08 -10.78,-9.67 -22.35,-21.31 -33.01,-30.93 -3.75,-3.39 -7.25,-6.68 -11.01,-10.31 -2.43,-2.35 -10.1,-6.96 -5.87,-13.23 1.22,-1.81 4.17,-3.55 7.59,-2.45 2.71,0.88 36.03,32.89 38.9,35.53 7.41,6.82 14.18,13.47 22.02,20.61 6.33,5.77 15.05,16.26 29.46,9.82 12.13,-5.41 17.57,-23.05 6.41,-34.07 -11.45,-11.31 -26.53,-24.73 -38.62,-36.18 -3.66,-3.47 -7.21,-6.59 -11.06,-10.26 -6.53,-6.22 -1.17,-11.86 2.76,-12.29 4.64,-0.52 8.16,4.6 12.63,8.54l44.06 41.21c7.57,6.97 15.4,16.62 24.6,18.07 18.6,2.94 31.84,-18.56 19.92,-33.91l-49.3 -46.44c-1.61,-1.62 -4.17,-3.09 -4.8,-6.01 -1.45,-6.73 6.22,-10.46 11.19,-6.19 1.88,1.62 3.69,3.47 5.39,5.08l60.72 56.72c14.78,12.26 37.1,-0.46 34.24,-19.45 -1.04,-6.92 -4.42,-10.3 -7.78,-13.61 -7.01,-6.92 -14.34,-13.88 -21.74,-20.9 -21.58,-20.47 -43.51,-42.22 -65.18,-62.72l-65.16 -62.63 -18.11 9.68c-5.83,3.25 -11.8,6.41 -18.11,9.78l-54.55 29.54c-5.95,3.22 -12.29,6.5 -18.34,9.95 -14.78,8.42 -30.19,7.1 -42.56,-2.36 -9.36,-7.16 -17.98,-22.99 -12.53,-40.28 4.9,-15.54 15.78,-20.57 27.65,-28.56 1.67,-1.12 65.36,-43.92 66.78,-45.63 -3.02,-2.18 -15.79,-5.23 -20.67,-6.11 -28,-5.08 -45.78,-0.79 -72.23,5.05 -15.87,3.5 -31.3,6.51 -48.44,4.11 -7.32,-1.03 -14.51,-3.92 -20.97,-6.23l-19.08 -8.04 -75.62 125.12c-0.7,1.19 -1.91,2.92 -2.39,4.31 1.15,2.06 31.43,33.06 35.77,37.59l12.05 12.71c3.01,-1.1 6.85,-6.96 16.3,-9.96 7.36,-2.33 15.53,-2.1 22.7,0.47 11.39,4.08 21.85,15.65 22.22,31.04 1.97,-0.49 13.77,-10.93 17.38,-13.36 6.42,-4.31 15.37,-6.56 24.83,-5.02 8.64,1.41 15.64,6.38 19.63,11.01 5.62,6.52 7.37,11.31 8.71,21.88 3.56,-1.82 5.55,-3.93 10.58,-5.59 13.54,-4.49 28.1,-0.16 36.54,9.66 10.51,12.22 11.97,29.22 2.38,42.82 -0.91,1.29 -3.34,3.77 -3.68,4.72 4.91,2.04 6.64,1.6 12.36,5.74 4.04,2.93 5.82,5.77 9.3,8.91l28.43 26.6c4.65,4.37 19.81,19.15 24.24,21.49 2.28,1.2 5.24,1.52 6.95,2.38zm33.32 -334.6c-18.69,0 -37.3,3.31 -53.08,10.94l-96.82 65.61c-5.38,3.7 -9.36,6.37 -11.99,13.22 -5.69,14.84 3.83,27.81 15.1,31.52 7.88,2.59 14.51,0.54 20.33,-2.68 32.2,-17.83 64.9,-35.02 97.27,-52.72l16.36 -8.85c4.14,-1.9 6.68,0.03 8.75,2.17 5.49,5.68 13.49,12.51 19.16,18.44 5.23,5.47 19.59,18.86 25.5,24.5l82.73 79.68c2.46,2.29 17.99,17.73 19.32,18.31l35.37 -36.76c5.42,-6.03 12.47,-12.6 17.65,-18.39 2.71,-3.03 16.48,-16.78 17.42,-18.53 -0.98,-2.34 -3.31,-5.66 -4.71,-7.99l-34.27 -56.81c-0.94,-1.55 -37.85,-63.33 -39.22,-64.62l-13.94 6.18c-4.76,1.84 -9.91,3.58 -14.88,5.28 -35,11.95 -70.37,-8.51 -106.07,-8.51zm-411.23 86.25l0 0.64 44.67 27.09c2.39,1.43 13.3,8.44 15.02,8.84l19.46 -31.93c12.59,-21.19 26.68,-43.06 39,-64.09 3.06,-5.23 6.19,-10.31 9.69,-15.9 1.7,-2.71 3.24,-5.27 4.85,-7.94 1.55,-2.57 3.77,-5.76 4.92,-8.28 -1.08,-1.27 -45.31,-27.92 -51.65,-31.7 -1.94,-1.16 -5.51,-3.77 -7.67,-4.52 -1.63,1.53 -3.69,5.7 -5.06,7.9 -17.98,28.92 -35.86,59.18 -53.54,87.95 -3.26,5.3 -6.26,10.48 -9.67,15.89 -1.8,2.85 -3.21,5.25 -4.85,7.94 -1,1.64 -3.86,6.98 -5.18,8.09zm693.78 -2.75l0 -0.8c-1.55,-1.37 -37.23,-60.76 -39.19,-63.94 -6.24,-10.13 -13.25,-22.38 -19.53,-32.04 -5,-7.69 -9.55,-15.84 -14.47,-23.87 -1.45,-2.37 -3.77,-5.61 -4.81,-8.1l-0.55 0 -29.55 18.25c-4.49,2.7 -9.79,5.82 -14.71,8.91 -2.6,1.64 -13.54,7.89 -14.75,9.28l19.42 32.12c12.71,20.68 26.32,44.02 39.03,64.07l19.44 32.03c2.05,-0.56 11.83,-6.95 14.8,-8.75l44.88 -27.16zm-424.08 140.45c-7.3,0.98 -10.23,4.31 -14.77,7.83 -11.67,9.06 -25.84,21.04 -37.42,30.42 -9.27,7.51 -19.21,12.91 -19.35,25.49 -0.14,12.64 10.7,22.84 23.89,21.2 6.7,-0.84 10.88,-4.74 14.57,-7.82 14.22,-11.86 29.79,-23.79 43.59,-35.47 5.93,-5.02 13.06,-9.01 13.21,-20.54 0.16,-12.53 -10.79,-22.84 -23.73,-21.11zm-55.93 -26.05c-8.66,1.19 -15.55,8.38 -22.67,14.24 -6.75,5.55 -13.47,10.99 -20.33,16.48 -3.33,2.66 -6.56,5.27 -8.55,9.68 -6.83,15.09 5.05,32.23 22.05,29.86 8.01,-1.11 15.72,-8.73 22.53,-14.36 6.66,-5.5 13.77,-11.07 20.32,-16.5 3.33,-2.76 6.39,-4.99 8.49,-9.74 6.81,-15.38 -5.71,-31.88 -21.83,-29.66zm59.01 136.7l5.62 0c2.77,-1.13 4.42,-0.43 9.14,-3.55 2.96,-1.96 4.94,-3.94 7.33,-5.84 4.89,-3.89 10.08,-7.33 13.02,-13.34 7.25,-14.82 -4.9,-29.95 -19.13,-29.97 -8.45,-0.02 -12.97,4.37 -17.71,8.26 -4.36,3.57 -10.69,7.78 -13.53,12.81 -3.8,6.71 -3.79,14.1 -0.2,20.83 2.17,4.07 6.36,7.66 10.5,9.29 1.49,0.58 3.76,0.94 4.96,1.52zm-130.11 -150.89c-3.94,0.66 -6.82,2.07 -9.4,3.93 -2.55,1.83 -5.3,4.28 -7.5,6.06 -4.84,3.89 -10.37,7.54 -12.68,14.45 -5.24,15.63 8.01,30.32 23.5,27.69 7.56,-1.28 12.04,-6.46 16.66,-10.02 5.07,-3.9 10.2,-7.41 12.7,-14.44 5.49,-15.38 -8.01,-30.21 -23.27,-27.67z"/>
 </g>
</svg>
