<?xml version="1.0" encoding="UTF-8"?>
<!DOCTYPE svg PUBLIC "-//W3C//DTD SVG 1.1//EN" "http://www.w3.org/Graphics/SVG/1.1/DTD/svg11.dtd">
<!-- Creator: CorelDRAW -->
<svg xmlns="http://www.w3.org/2000/svg" xml:space="preserve" width="43.0184mm" height="44.9328mm" version="1.1" style="shape-rendering:geometricPrecision; text-rendering:geometricPrecision; image-rendering:optimizeQuality; fill-rule:evenodd; clip-rule:evenodd"
viewBox="0 0 309.78 323.57"
 xmlns:xlink="http://www.w3.org/1999/xlink"
 xmlns:xodm="http://www.corel.com/coreldraw/odm/2003">
 <defs>
  <style type="text/css">
   <![CDATA[
    .str0 {stroke:black;stroke-width:1.44;stroke-miterlimit:22.9256}
    .fil0 {fill:black}
   ]]>
  </style>
 </defs>
 <g id="Camada_x0020_1">
  <metadata id="CorelCorpID_0Corel-Layer"/>
  <path class="fil0 str0" d="M164.57 165.12c-4.15,-33.95 -0.36,-91.07 -0.64,-127.77 -0.19,-25.27 -0.78,-38.48 29.33,-36.42 20.06,1.37 30.02,12.63 34.91,28.46 -14.62,6.82 -31.99,13.09 -27.51,31.03 22.09,6.98 21.03,-24.59 56.34,-12.99 19.3,6.34 30.84,26.08 23.61,52.06 -1.66,0.48 -38.42,5.41 -39.31,5.39 -7.4,-0.15 -7.91,-3.82 -14.79,-7.07 -7.37,-3.49 -11.64,-4.11 -15.67,0.55 -8.52,15.32 13.79,14.39 22.68,28.28 7.82,12.21 6.09,34.36 23.18,25.06 3.86,-7.67 2.44,-9.65 -0.08,-17.87l-2.66 -8.69c-0.14,-1.12 0.32,-2.83 0.55,-3.94 40.17,-22.41 89.11,57.8 19.64,83.26 5.43,12.89 17.07,24.97 11.01,44.27 -4.51,14.36 -14.38,23.64 -30.96,26.85 -4.89,-5.15 -5.5,-11.95 -9,-18.33 -4.01,-7.31 -7.34,-8.85 -12.07,-16.63 2.26,-4.25 5.44,-9.75 6.68,-14.68 2.56,-10.17 1.46,-9.33 -2.99,-13.88 -15.68,-6.38 -13.02,14.38 -25.59,26.26 -14.27,13.49 -28.07,5 -23.14,25.38 14.54,5.12 19.89,-3.9 33.09,-7.34 7.62,7.62 12.68,12.67 13.12,27.51 0.34,11.72 -4.98,22.55 -10.32,28.14 -15.92,16.66 -38.93,11.51 -59.85,2.1l-0.19 -130.43 21.69 0.21c5.82,9.17 7.77,21.4 21.85,14.95 4.08,-13.59 -1.84,-11.18 -4.23,-24.42 -2.31,-12.81 2.64,-19.81 -2.36,-27.72 -13.39,-9.49 -13.07,2.3 -16.21,12.2 -3.15,9.94 -6.51,7.93 -20.1,6.25zm-84.41 -118.72c1.4,-42.97 28.5,-54 66.1,-37.57l-1.14 63.71c-43.06,7 -37.22,-28.97 -52.44,-16.63 -11.15,9.74 4.92,23.23 13.04,28.37 12.48,7.9 23.89,8.18 40.43,6.93 0.01,33.98 2.61,203.11 -1.37,222.72 -28.08,14.56 -57.78,11.91 -66.79,-16.38 -14.28,-44.85 37.09,-47.11 44.16,-51.07 0.05,-18.5 -6.05,-14.82 -23.37,-13.21 -0.03,-16.76 -0.49,-36.35 -19.55,-32.93 -5.91,15.23 8.19,27.16 -2.07,43.55 -3.1,4.94 -8.12,7.61 -12.72,15.24 -4.65,7.72 -3.08,10.69 -8.38,16.44 -16.62,-3.68 -26.43,-11.38 -31,-26.81 -5.94,-20.08 5.46,-31.4 11.08,-44.26 -77.23,-27.62 -11.8,-124.52 39.88,-70.64 -5.53,9.32 -25.48,16.62 -17.61,30.57 6.59,4.83 4.23,5.51 12.66,0.26 6.91,-4.3 10.27,-16 30.95,-17.88 8.92,-0.81 23.74,1.07 19.46,-11.86 -3.08,-9.31 -17.4,-6.47 -27.32,-6.56 -10.02,-11.07 -10.57,-15.21 -25.51,-22.46 -13.01,-6.32 -36.13,-4.35 -38.86,-7.43 -2.36,-2.65 -15.41,-56.37 50.36,-52.11z"/>
 </g>
</svg>
