<?xml version="1.0" encoding="UTF-8"?>
<!DOCTYPE svg PUBLIC "-//W3C//DTD SVG 1.1//EN" "http://www.w3.org/Graphics/SVG/1.1/DTD/svg11.dtd">
<!-- Creator: CorelDRAW -->
<svg xmlns="http://www.w3.org/2000/svg" xml:space="preserve" width="27.4283mm" height="27.4283mm" version="1.1" style="shape-rendering:geometricPrecision; text-rendering:geometricPrecision; image-rendering:optimizeQuality; fill-rule:evenodd; clip-rule:evenodd"
viewBox="0 0 128.88 128.88"
 xmlns:xlink="http://www.w3.org/1999/xlink"
 xmlns:xodm="http://www.corel.com/coreldraw/odm/2003">
 <defs>
  <style type="text/css">
   <![CDATA[
    .fil0 {fill:black}
   ]]>
  </style>
 </defs>
 <g id="Camada_x0020_1">
  <metadata id="CorelCorpID_0Corel-Layer"/>
  <path class="fil0" d="M42.04 47.58c0,1.84 -0.01,3.45 0.76,5.03 -3.68,5.5 -4.03,5.5 -4.03,12.84 0,7.33 3.81,13.04 10.64,15.79 1.87,0.75 4.98,1.58 7.48,1.58 -3.44,5.13 -1.62,5.27 -3.92,5.89 -4.17,1.14 -7.6,0.05 -9.97,-3.57 -1.76,-2.67 -4.95,-5.58 -8.25,-3.83 0.1,1.16 0.77,1.45 1.56,1.97 4.92,3.23 3.6,7.4 8.08,10.05 3.06,1.81 6.48,1.9 10,1.08 0,7.77 1.4,11.02 -7.72,6.46 -1.94,-0.97 -3.52,-1.85 -5.22,-3.08 -1.76,-1.28 -3.11,-2.18 -4.61,-3.7 -1.52,-1.54 -2.62,-2.58 -4.01,-4.29 -3.96,-4.87 -6.55,-10.56 -7.82,-16.85 -1.69,-8.36 -0.5,-16.71 2.79,-23.77 2.32,-4.98 4.53,-7.85 8.29,-11.6 11.68,-11.68 29.39,-14.85 44.82,-8.19 5.6,2.41 10.15,6.07 14.22,10.45 0.83,0.9 1.44,1.83 2.18,2.85 2.93,4.06 5.22,8.7 6.33,13.8 1.25,5.7 1.5,10.48 0.34,16.24 -2.55,12.59 -10.12,22.2 -21.46,27.88 -2.26,1.13 -6.92,3.77 -7.89,1.24 -0.3,-0.78 -0.08,-7.71 -0.08,-8.96 0,-2.21 -0.06,-4.2 -0.44,-5.85 -0.21,-0.91 -0.44,-1.54 -0.82,-2.2 -0.4,-0.69 -1.05,-1.23 -1.26,-2.02 4.72,0 10.2,-2.27 13.28,-5.35 5.15,-5.14 6.65,-16.11 2.47,-22.49 -2.36,-3.6 -1.78,-0.58 -1.16,-4.9 0.41,-2.87 -0.41,-8.05 -1.5,-8.05 -3.34,0 -7.56,2.13 -9.57,3.53 -0.94,0.66 -0.81,0.76 -2.15,0.41 -4.89,-1.28 -9.29,-1.43 -14.26,-0.72 -7.03,1.01 -2.54,1.74 -9.52,-1.72 -1.4,-0.69 -3.7,-1.51 -5.79,-1.51 -1.23,0 -1.76,4.57 -1.76,5.54zm-42.04 -31.21l0 96.16c0,8.12 8.24,16.36 16.36,16.36l96.16 0c8.12,0 16.36,-8.24 16.36,-16.36l0 -96.16c0,-8.17 -8.19,-16.36 -16.36,-16.36l-96.16 0c-4.52,0 -8.94,2.76 -11.27,5.09 -2.36,2.36 -5.09,6.69 -5.09,11.27z"/>
 </g>
</svg>
