<?xml version="1.0" encoding="UTF-8"?>
<!DOCTYPE svg PUBLIC "-//W3C//DTD SVG 1.1//EN" "http://www.w3.org/Graphics/SVG/1.1/DTD/svg11.dtd">
<!-- Creator: CorelDRAW -->
<svg xmlns="http://www.w3.org/2000/svg" xml:space="preserve" width="29.0239mm" height="28.9554mm" version="1.1" style="shape-rendering:geometricPrecision; text-rendering:geometricPrecision; image-rendering:optimizeQuality; fill-rule:evenodd; clip-rule:evenodd"
viewBox="0 0 195.74 195.28"
 xmlns:xlink="http://www.w3.org/1999/xlink"
 xmlns:xodm="http://www.corel.com/coreldraw/odm/2003">
 <defs>
  <style type="text/css">
   <![CDATA[
    .str0 {stroke:black;stroke-width:1.35;stroke-miterlimit:22.9256}
    .fil0 {fill:black}
   ]]>
  </style>
 </defs>
 <g id="Camada_x0020_1">
  <metadata id="CorelCorpID_0Corel-Layer"/>
  <path class="fil0 str0" d="M54.24 0.67l87.25 0c29.46,0 53.57,24.11 53.57,53.57l0 86.79c0,29.46 -24.11,53.57 -53.57,53.57l-87.25 0c-29.46,0 -53.57,-24.11 -53.57,-53.57l0 -86.79c0,-29.46 24.11,-53.57 53.57,-53.57zm43.63 46.16c28.06,0 50.81,22.75 50.81,50.81 0,28.06 -22.75,50.81 -50.81,50.81 -28.06,0 -50.81,-22.75 -50.81,-50.81 0,-28.06 22.75,-50.81 50.81,-50.81zm0 18.36c17.92,0 32.44,14.53 32.44,32.44 0,17.92 -14.53,32.44 -32.44,32.44 -17.92,0 -32.44,-14.53 -32.44,-32.44 0,-17.92 14.53,-32.44 32.44,-32.44zm52.14 -32.09c6.62,0 11.99,5.37 11.99,11.99 0,6.62 -5.37,11.99 -11.99,11.99 -6.62,0 -11.99,-5.37 -11.99,-11.99 0,-6.62 5.37,-11.99 11.99,-11.99z"/>
 </g>
</svg>
