<?xml version="1.0" encoding="UTF-8"?>
<!DOCTYPE svg PUBLIC "-//W3C//DTD SVG 1.1//EN" "http://www.w3.org/Graphics/SVG/1.1/DTD/svg11.dtd">
<!-- Creator: CorelDRAW -->
<svg xmlns="http://www.w3.org/2000/svg" xml:space="preserve" width="26.7701mm" height="26.7701mm" version="1.1" style="shape-rendering:geometricPrecision; text-rendering:geometricPrecision; image-rendering:optimizeQuality; fill-rule:evenodd; clip-rule:evenodd"
viewBox="0 0 200.42 200.42"
 xmlns:xlink="http://www.w3.org/1999/xlink"
 xmlns:xodm="http://www.corel.com/coreldraw/odm/2003">
 <defs>
  <style type="text/css">
   <![CDATA[
    .str0 {stroke:black;stroke-width:1.5;stroke-miterlimit:22.9256}
    .fil0 {fill:black;fill-rule:nonzero}
   ]]>
  </style>
 </defs>
 <g id="Camada_x0020_1">
  <metadata id="CorelCorpID_0Corel-Layer"/>
  <path class="fil0 str0" d="M54.04 103.99l-45.64 0c0.97,23.87 11.04,45.39 26.84,61.19 0.13,0.13 0.25,0.25 0.38,0.38 6.05,-6.59 14.39,-12.17 24.27,-16.26 -3.47,-13.43 -5.57,-28.86 -5.85,-45.31zm42.38 0l-34.81 0c0.27,15.52 2.21,30.05 5.41,42.7 8.94,-2.86 18.89,-4.6 29.4,-4.94l0 -37.76zm7.57 37.76c10.51,0.34 20.46,2.08 29.4,4.94 3.2,-12.65 5.14,-27.17 5.41,-42.7l-34.81 0 0 37.76zm42.38 -37.76c-0.28,16.45 -2.37,31.88 -5.85,45.31 9.88,4.09 18.22,9.67 24.27,16.26 0.13,-0.13 0.25,-0.25 0.38,-0.38 15.8,-15.8 25.87,-37.32 26.84,-61.19l-45.64 0zm-25.8 85.83c14.48,-3.28 27.65,-9.97 38.64,-19.19 -5.13,-5.58 -12.26,-10.37 -20.79,-14.01 -1.43,4.55 -3.03,8.82 -4.77,12.75 -3.71,8.38 -8.13,15.33 -13.08,20.45zm-16.59 1.8c8.63,-2.12 16.58,-11.39 22.74,-25.29 1.69,-3.8 3.23,-7.93 4.6,-12.35 -8.28,-2.68 -17.53,-4.32 -27.35,-4.66l0 42.3zm-7.57 0l0 -42.3c-9.81,0.34 -19.07,1.98 -27.34,4.66 1.37,4.42 2.92,8.55 4.6,12.35 6.16,13.9 14.12,23.17 22.74,25.29zm-16.59 -1.8c-4.95,-5.12 -9.37,-12.07 -13.08,-20.45 -1.75,-3.94 -3.34,-8.2 -4.77,-12.75 -8.53,3.64 -15.66,8.43 -20.79,14.01 10.99,9.22 24.17,15.91 38.64,19.19zm20.37 -189.08c27.47,0 52.33,11.13 70.33,29.13 18,18 29.13,42.86 29.13,70.33 0,27.47 -11.13,52.33 -29.13,70.33 -18,18 -42.86,29.13 -70.33,29.13 -27.46,0 -52.33,-11.13 -70.33,-29.13 -18,-18 -29.13,-42.86 -29.13,-70.33 0,-27.46 11.13,-52.33 29.13,-70.33 18,-18 42.86,-29.13 70.33,-29.13zm-40.21 49.94c-9.81,-4.04 -18.1,-9.55 -24.16,-16.06 -0.2,0.2 -0.41,0.4 -0.61,0.6 -15.8,15.8 -25.87,37.32 -26.84,61.19l45.64 0c0.28,-16.62 2.42,-32.2 5.96,-45.73zm86.38 45.73l45.64 0c-0.97,-23.87 -11.04,-45.39 -26.84,-61.19 -0.2,-0.2 -0.41,-0.4 -0.61,-0.6 -6.06,6.51 -14.35,12.02 -24.16,16.06 3.54,13.53 5.68,29.11 5.96,45.73zm-8.07 -53.05c8.46,-3.59 15.54,-8.31 20.67,-13.8 -10.94,-9.11 -24.03,-15.73 -38.4,-18.98 4.95,5.12 9.37,12.07 13.08,20.45 1.69,3.82 3.25,7.95 4.64,12.34zm-96.87 -13.8c5.14,5.49 12.22,10.22 20.67,13.8 1.4,-4.39 2.95,-8.52 4.64,-12.34 3.71,-8.38 8.13,-15.33 13.08,-20.45 -14.37,3.25 -27.46,9.87 -38.4,18.98zm54.98 28.63c-10.47,-0.34 -20.38,-2.07 -29.29,-4.91 -3.27,12.75 -5.25,27.43 -5.52,43.13l34.81 0 0 -38.22zm36.86 -4.91c-8.91,2.84 -18.82,4.57 -29.29,4.91l0 38.22 34.81 0c-0.27,-15.7 -2.25,-30.38 -5.52,-43.13zm-29.29 -2.67c9.76,-0.34 18.97,-1.96 27.21,-4.61 -1.34,-4.26 -2.84,-8.25 -4.47,-11.93 -6.16,-13.9 -14.12,-23.17 -22.74,-25.49l0 42.03zm-34.78 -4.61c8.24,2.65 17.45,4.28 27.21,4.61l0 -42.03c-8.63,2.32 -16.58,11.59 -22.74,25.49 -1.63,3.68 -3.13,7.67 -4.47,11.93z"/>
 </g>
</svg>
