<?xml version="1.0" encoding="UTF-8"?>
<!DOCTYPE svg PUBLIC "-//W3C//DTD SVG 1.1//EN" "http://www.w3.org/Graphics/SVG/1.1/DTD/svg11.dtd">
<!-- Creator: CorelDRAW -->
<svg xmlns="http://www.w3.org/2000/svg" xml:space="preserve" width="28.4209mm" height="28.4209mm" version="1.1" style="shape-rendering:geometricPrecision; text-rendering:geometricPrecision; image-rendering:optimizeQuality; fill-rule:evenodd; clip-rule:evenodd"
viewBox="0 0 123.77 123.77"
 xmlns:xlink="http://www.w3.org/1999/xlink"
 xmlns:xodm="http://www.corel.com/coreldraw/odm/2003">
 <defs>
  <style type="text/css">
   <![CDATA[
    .fil0 {fill:black;fill-rule:nonzero}
   ]]>
  </style>
 </defs>
 <g id="Camada_x0020_1">
  <metadata id="CorelCorpID_0Corel-Layer"/>
  <path class="fil0" d="M109.03 0l-94.3 0c-8.13,0 -14.73,6.6 -14.73,14.73l0 15.15 0 79.15c0,8.13 6.6,14.73 14.73,14.73l94.3 0c8.13,0 14.73,-6.6 14.73,-14.73l0 -17.88 0 -76.42c0,-8.13 -6.6,-14.73 -14.73,-14.73zm-70.72 47.15l0 55.99 -17.68 0 0 -55.99 17.68 0zm-17.68 -16.3c0,-4.13 3.54,-7.28 8.84,-7.28 5.3,0 8.63,3.15 8.84,7.28 0,4.13 -3.3,7.46 -8.84,7.46 -5.31,0 -8.84,-3.33 -8.84,-7.46zm82.51 72.29l-17.68 0c0,0 0,-27.29 0,-29.47 0,-5.89 -2.95,-11.79 -10.31,-11.9l-0.24 -0c-7.13,0 -10.08,6.07 -10.08,11.91 0,2.68 0,29.47 0,29.47l-17.68 0 0 -55.99 17.68 0 0 7.54c0,0 5.69,-7.54 17.12,-7.54 11.7,0 21.19,8.04 21.19,24.34l0 31.65z"/>
 </g>
</svg>
