<?xml version="1.0" encoding="UTF-8"?>
<!DOCTYPE svg PUBLIC "-//W3C//DTD SVG 1.1//EN" "http://www.w3.org/Graphics/SVG/1.1/DTD/svg11.dtd">
<!-- Creator: CorelDRAW -->
<svg xmlns="http://www.w3.org/2000/svg" xml:space="preserve" width="39.501mm" height="28.3913mm" version="1.1" style="shape-rendering:geometricPrecision; text-rendering:geometricPrecision; image-rendering:optimizeQuality; fill-rule:evenodd; clip-rule:evenodd"
viewBox="0 0 302.03 217.08"
 xmlns:xlink="http://www.w3.org/1999/xlink"
 xmlns:xodm="http://www.corel.com/coreldraw/odm/2003">
 <defs>
  <style type="text/css">
   <![CDATA[
    .fil0 {fill:black}
   ]]>
  </style>
 </defs>
 <g id="Camada_x0020_1">
  <metadata id="CorelCorpID_0Corel-Layer"/>
  <path class="fil0" d="M114.44 64.89l0 87.3c0,2.74 1.08,5.02 2.38,6.47 6.18,6.83 13.17,0.54 18.52,-2.67l51.32 -31.26c8.3,-4.99 17.44,-8.66 17.44,-15.59 0,-5.52 -3.46,-7.37 -6.96,-9.55l-61.46 -38.23c-6.04,-3.99 -12.99,-9.41 -18.85,-2.93 -1.31,1.44 -2.38,3.72 -2.38,6.47zm-114.44 -6.49l0 100.28c0,11.5 5.24,24.64 11.37,32.87 10.26,13.8 27.18,25.53 48.21,25.53l182.87 0c22.9,0 43.31,-14.21 53.48,-34.41 2.91,-5.77 6.09,-15.09 6.09,-23.4l0 -101.46c0,-29 -27.8,-57.81 -59.58,-57.81l-182.87 0c-17.08,0 -32.81,8.86 -41.44,17.55 -5.54,5.57 -8.58,10.01 -12.24,17.25 -2.95,5.85 -5.9,14.81 -5.9,23.6z"/>
 </g>
</svg>
